# xmcd CD database file
#
# Track frame offsets:
#	150
#	25202
#	45761
#	66066
#	81869
#	98772
#
# Disc length: 1572 seconds
#
# Revision: 0
# Processed by: cddbd v1.5.2PL0 Copyright (c) Steve Scherf et al.
# Submitted via: CDex 1.60beta1-cs1
#
DISCID=3b062206
DTITLE=Best of Carnaval - Best of Carnaval - Béghin Say
DYEAR=1996
DGENRE=Salsa
TTITLE0=Pais Tropical
TTITLE1=Festa Do Interior
TTITLE2=Upa Neguinho
TTITLE3=Aquarela Do Brasil
TTITLE4=Charlie Brown
TTITLE5=Ilaire
EXTD=YEAR: 1996
EXTT0=
EXTT1=
EXTT2=
EXTT3=
EXTT4=
EXTT5=
PLAYORDER=
